Coordinates
version=1
nRows=8
nColumns=34
inDegrees=yes

Units are S.I. units (second, meters, Newtons, ...)
If the header above contains a line with 'inDegrees', this indicates whether rotational values are in degrees (yes) or radians (no).

endheader
time	bJoint_0	bJoint_1	bJoint_2	bJoint_3	bJoint_4	bJoint_5	seatpos	slocangle	soarinout	sblpos	plocangle	poarinout	pblpos	hipangle	kneeangle	footangle	lbackangle	uarmleft_out	uarmleft_trn	uarmleft_up	se_inout	se_updown	handleleft_out	handleleft_trn	handleleft_up	uarmright_out	uarmright_trn	uarmright_up	pe_inout	pe_updown	handleright_out	handleright_trn	handleright_up
      5.02000000	      0.00000000	      0.00000000	     -0.00000000	      0.00000000	     -0.00000000	      0.00000000	     -0.31615781	     50.05476962	     17.56155743	    -17.09317363	     48.93212486	     16.22336182	    -11.38641731	     45.65958581	     96.94847795	     52.60806376	     11.51160042	    -61.01397814	    -68.08698486	    -54.64844854	      6.60292997	     -4.65571488	     -2.21996495	     52.98421588	     55.88342782	    -80.33565114	    -75.03551003	    -71.38489165	      2.93446345	     -4.74322063	     16.54493452	    -57.92946883	     69.02000023
      5.04000000	      0.00000000	      0.00000000	     -0.00000000	      0.00000000	      0.00000000	     -0.00000000	     -0.31410308	     49.80515885	     17.58578209	    -17.21971961	     48.69673707	     16.25002107	    -11.51248286	     45.82820241	     96.61077805	     52.43898045	     11.50311655	    -61.15702185	    -67.95384363	    -54.49594342	      6.74922177	     -4.67134286	     -2.25808498	     52.93109143	     55.94000643	    -80.35790436	    -75.09681004	    -71.23185226	      2.74401895	     -4.56338475	     16.60985566	    -58.06379305	     69.20091250
      5.06000000	      0.00000000	      0.00000000	     -0.00000000	      0.00000000	      0.00000000	     -0.00000000	     -0.31344932	     49.56675775	     17.59783996	    -17.27608332	     48.43990954	     16.25246889	    -11.51644644	     45.88196279	     96.50314326	     52.38510605	     11.38477941	    -61.16046679	    -68.07378983	    -54.22821194	      6.77294740	     -4.62012575	     -2.42818522	     52.92895907	     56.15605203	    -80.44018448	    -75.20894786	    -70.94969730	      2.89037040	     -4.68528597	     16.84692653	    -57.96339437	     69.39211798
      5.08000000	      0.00000000	     -0.00000000	     -0.00000000	      0.00000000	     -0.00000000	      0.00000000	     -0.31201155	     49.30021530	     17.57656152	    -17.18096277	     48.18049365	     16.24178536	    -11.49998892	     46.00038585	     96.26610484	     52.26649069	     11.33731826	    -61.21415235	    -68.12009205	    -53.93800627	      6.82343674	     -4.64288619	     -2.59650444	     52.92582580	     56.35035511	    -80.50236562	    -75.28348195	    -70.69267458	      2.92986546	     -4.71133350	     17.04737644	    -57.94311616	     69.60601668
      5.10000000	      0.00000000	     -0.00000000	     -0.00000000	      0.00000000	     -0.00000000	     -0.00000000	     -0.31069337	     49.04803776	     17.56478583	    -17.10268650	     47.93713027	     16.24257786	    -11.48203590	     46.10918981	     96.04839121	     52.15758102	     11.28345255	    -61.26342001	    -68.16943443	    -53.66977645	      6.86398362	     -4.65587870	     -2.74929032	     52.92555610	     56.52830358	    -80.56789099	    -75.35442468	    -70.45876976	      2.96082650	     -4.74421248	     17.22298656	    -57.92835890	     69.78547695
      5.12000000	      0.00000000	      0.00000000	     -0.00000000	     -0.00000000	     -0.00000000	      0.00000000	     -0.30940690	     48.82080479	     17.59387517	    -17.26863839	     47.68520404	     16.24830092	    -11.49029938	     46.21559184	     95.83554896	     52.05114080	     11.21664241	    -61.34445753	    -68.28855322	    -53.42353707	      6.72282132	     -4.79586540	     -2.83918253	     53.03466616	     56.56238001	    -80.62325752	    -75.48349536	    -70.21713486	      2.89902432	     -4.75790098	     17.40267658	    -57.96183119	     69.97683052
      5.14000000	      0.00000000	     -0.00000000	     -0.00000000	     -0.00000000	     -0.00000000	      0.00000000	     -0.30809615	     48.56920555	     17.58154981	    -17.17730739	     47.44242102	     16.24728709	    -11.48174216	     46.32422138	     95.61831690	     51.94253828	     11.16362849	    -61.39556672	    -68.32888977	    -53.15808258	      6.78229796	     -4.81062551	     -2.99403152	     53.02262663	     56.73945190	    -80.68236546	    -75.55566412	    -69.98714432	      2.93186352	     -4.77382187	     17.57966065	    -57.94474086	     70.16528870
      5.16000000	      0.00000000	      0.00000000	     -0.00000000	     -0.00000000	     -0.00000000	      0.00000000	     -0.30703173	     48.32771408	     17.60378003	    -17.28920584	     47.18515290	     16.25876033	    -11.54563456	     46.41259728	     95.44163513	     51.85423241	     11.07280334	    -61.42994167	    -68.39896382	    -52.92924607	      6.79580253	     -4.76728396	     -3.11603059	     53.03083558	     56.89917643	    -80.75676404	    -75.65771600	    -69.73854901	      2.98587068	     -4.83157426	     17.77179327	    -57.90788436	     70.34117371
